<?xml version="1.0" standalone="no"?>
<!DOCTYPE svg PUBLIC "-//W3C//DTD SVG 20010904//EN"
 "http://www.w3.org/TR/2001/REC-SVG-20010904/DTD/svg10.dtd">
<svg version="1.0" xmlns="http://www.w3.org/2000/svg"
 width="344.000000pt" height="344.000000pt" viewBox="0 0 344.000000 344.000000"
 preserveAspectRatio="xMidYMid meet">
<metadata>
Created by potrace 1.11, written by Peter Selinger 2001-2013
</metadata>
<g transform="translate(0.000000,344.000000) scale(0.100000,-0.100000)"
fill="#000000" stroke="none">
<path d="M1555 3073 c-11 -2 -56 -11 -100 -19 -266 -50 -494 -173 -695 -374
-268 -266 -403 -600 -398 -984 1 -110 26 -299 43 -325 2 -4 -63 -8 -146 -9
-164 -1 -190 -8 -233 -65 -28 -38 -28 -122 -1 -159 44 -58 61 -62 289 -63 165
-1 211 -4 214 -14 15 -45 142 -211 227 -296 199 -201 407 -315 686 -376 138
-31 408 -34 539 -6 325 69 608 241 800 485 33 42 65 82 70 89 6 7 10 15 10 19
0 4 6 15 14 23 8 9 35 57 60 106 144 288 178 576 111 936 l-7 36 146 1 c160 0
187 8 230 65 28 38 28 122 1 160 -41 55 -71 61 -292 62 l-202 0 -34 56 c-134
222 -346 415 -579 527 -111 53 -260 99 -383 117 -90 13 -319 18 -370 8z m345
-294 c30 -6 66 -12 79 -15 91 -19 231 -81 338 -151 74 -49 232 -194 253 -232
7 -15 -58 -16 -683 -16 -674 0 -693 0 -732 -20 -74 -37 -100 -127 -57 -197 46
-73 5 -70 866 -72 l771 -1 13 -40 c39 -116 55 -314 38 -450 -68 -537 -531
-943 -1071 -938 -66 0 -195 12 -205 18 -4 2 -21 7 -39 10 -190 33 -478 216
-590 374 l-19 26 697 0 c680 0 697 0 731 20 44 26 80 93 73 138 -7 48 -39 93
-80 112 -33 16 -99 17 -798 17 -420 1 -768 4 -775 8 -15 9 -48 137 -56 220
-24 218 12 424 106 610 166 331 483 550 850 588 90 9 215 6 290 -9z"/>
<path d="M1173 1854 c-45 -16 -63 -32 -83 -77 -32 -70 -4 -147 65 -182 39 -19
59 -20 571 -19 603 1 578 -2 621 82 34 68 11 147 -56 186 -31 18 -58 19 -559
20 -369 1 -536 -2 -559 -10z"/>
</g>
</svg>
